simulation
nRows=49
nColumns=15
endheader
time  TH_x TH_y TH_z SC_y  SC_z  SC_x  AC_y  AC_z  AC_x  GH_y  GH_z  GH_yy  EL_x  PS_y
0.500128  0.000000  0.000000  0.000000  -42.999630  19.384174  -10.000000  50.562058  37.554675  27.253487  -4.438552  67.099935  -25.238311  31.154100  117.519688
0.500385  0.000000  0.000000  0.000000  -42.999630  19.384174  -5.714286  52.491490  34.198315  23.963174  -4.438552  67.099935  -25.238311  31.154100  117.519688
0.500641  0.000000  0.000000  0.000000  -42.999630  19.384174  -1.428571  54.122456  30.760903  20.927863  -4.438552  67.099935  -25.238311  31.154100  117.519688
0.500898  0.000000  0.000000  0.000000  -42.999630  19.384174  2.857143  55.492773  27.257733  18.103943  -4.438552  67.099935  -25.238311  31.154100  117.519688
0.501154  0.000000  0.000000  0.000000  -42.999630  19.384174  7.142857  56.633498  23.701383  15.453918  -4.438552  67.099935  -25.238311  31.154100  117.519688
0.501411  0.000000  0.000000  0.000000  -42.999630  19.384174  11.428571  57.569799  20.102326  12.945428  -4.438552  67.099935  -25.238311  31.154100  117.519688
0.501667  0.000000  0.000000  0.000000  -42.999630  19.384174  15.714286  58.321758  16.469433  10.550333  -4.438552  67.099935  -25.238311  31.154100  117.519688
0.501924  0.000000  0.000000  0.000000  -42.999630  19.384174  20.000000  58.905096  12.810327  8.243774  -4.438552  67.099935  -25.238311  31.154100  117.519688
0.502180  0.000000  0.000000  0.000000  -42.999630  19.384174  24.285714  59.331720  9.131721  6.003495  -4.438552  67.099935  -25.238311  31.154100  117.519688
0.502437  0.000000  0.000000  0.000000  -42.999630  19.384174  28.571429  59.610187  5.439669  3.809119  -4.438552  67.099935  -25.238311  31.154100  117.519688
0.502693  0.000000  0.000000  0.000000  -42.999630  19.384174  32.857143  59.745982  1.739791  1.641563  -4.438552  67.099935  -25.238311  31.154100  117.519688
0.502949  0.000000  0.000000  0.000000  -42.999630  19.384174  37.142857  59.741783  -1.962568  -0.517492  -4.438552  67.099935  -25.238311  31.154100  117.519688
0.503206  0.000000  0.000000  0.000000  -42.999630  19.384174  41.428571  59.597500  -5.662131  -2.686137  -4.438552  67.099935  -25.238311  31.154100  117.519688
0.503462  0.000000  0.000000  0.000000  -42.999630  19.384174  45.714286  59.310301  -9.353528  -4.882740  -4.438552  67.099935  -25.238311  31.154100  117.519688
0.503719  0.000000  0.000000  0.000000  -42.999630  19.384174  50.000000  58.874524  -13.031141  -7.126406  -4.438552  67.099935  -25.238311  31.154100  117.519688
0.503975  0.000000  0.000000  0.000000  -40.064883  17.221415  -10.000000  57.633907  42.544849  27.139150  -13.669713  49.901266  -27.329129  28.789084  112.135217
0.504232  0.000000  0.000000  0.000000  -40.064883  17.221415  -5.714286  59.556790  38.885977  24.193185  -13.669713  49.901266  -27.329129  28.789084  112.135217
0.504488  0.000000  0.000000  0.000000  -40.064883  17.221415  -1.428571  61.156253  35.160391  21.538585  -13.669713  49.901266  -27.329129  28.789084  112.135217
0.504745  0.000000  0.000000  0.000000  -40.064883  17.221415  2.857143  62.484876  31.382005  19.118322  -13.669713  49.901266  -27.329129  28.789084  112.135217
0.505001  0.000000  0.000000  0.000000  -40.064883  17.221415  7.142857  63.583663  27.561702  16.886451  -13.669713  49.901266  -27.329129  28.789084  112.135217
0.505258  0.000000  0.000000  0.000000  -40.064883  17.221415  11.428571  64.484539  23.708147  14.805516  -13.669713  49.901266  -27.329129  28.789084  112.135217
0.505514  0.000000  0.000000  0.000000  -40.064883  17.221415  15.714286  65.212257  19.828371  12.844522  -13.669713  49.901266  -27.329129  28.789084  112.135217
0.505771  0.000000  0.000000  0.000000  -40.064883  17.221415  20.000000  65.785842  15.928205  10.977375  -13.669713  49.901266  -27.329129  28.789084  112.135217
0.506027  0.000000  0.000000  0.000000  -40.064883  17.221415  24.285714  66.219661  12.012597  9.181622  -13.669713  49.901266  -27.329129  28.789084  112.135217
0.506284  0.000000  0.000000  0.000000  -40.064883  17.221415  28.571429  66.524202  8.085861  7.437494  -13.669713  49.901266  -27.329129  28.789084  112.135217
0.506540  0.000000  0.000000  0.000000  -40.064883  17.221415  32.857143  66.706641  4.151874  5.727080  -13.669713  49.901266  -27.329129  28.789084  112.135217
0.506797  0.000000  0.000000  0.000000  -40.064883  17.221415  37.142857  66.771188  0.214238  4.033661  -13.669713  49.901266  -27.329129  28.789084  112.135217
0.507053  0.000000  0.000000  0.000000  -40.064883  17.221415  41.428571  66.719320  -3.723584  2.341119  -13.669713  49.901266  -27.329129  28.789084  112.135217
0.507310  0.000000  0.000000  0.000000  -40.064883  17.221415  45.714286  66.549870  -7.658136  0.633343  -13.669713  49.901266  -27.329129  28.789084  112.135217
0.507566  0.000000  0.000000  0.000000  -40.064883  17.221415  50.000000  66.258906  -11.585844  -1.106274  -13.669713  49.901266  -27.329129  28.789084  112.135217
0.507823  0.000000  0.000000  0.000000  -24.450431  20.741266  -10.000000  54.167838  33.164215  25.419079  -1.468307  52.183743  -10.110115  29.872067  120.405497
0.508079  0.000000  0.000000  0.000000  -24.450431  20.741266  -5.714286  55.672649  29.656147  22.533459  -1.468307  52.183743  -10.110115  29.872067  120.405497
0.508335  0.000000  0.000000  0.000000  -24.450431  20.741266  -1.428571  56.930802  26.089832  19.843979  -1.468307  52.183743  -10.110115  29.872067  120.405497
0.508592  0.000000  0.000000  0.000000  -24.450431  20.741266  2.857143  57.971593  22.476623  17.314763  -1.468307  52.183743  -10.110115  29.872067  120.405497
0.508848  0.000000  0.000000  0.000000  -24.450431  20.741266  7.142857  58.818514  18.825987  14.914941  -1.468307  52.183743  -10.110115  29.872067  120.405497
0.509105  0.000000  0.000000  0.000000  -24.450431  20.741266  11.428571  59.490036  15.145972  12.617692  -1.468307  52.183743  -10.110115  29.872067  120.405497
0.509361  0.000000  0.000000  0.000000  -24.450431  20.741266  15.714286  60.000506  11.443522  10.399287  -1.468307  52.183743  -10.110115  29.872067  120.405497
0.509618  0.000000  0.000000  0.000000  -24.450431  20.741266  20.000000  60.360536  7.724807  8.238329  -1.468307  52.183743  -10.110115  29.872067  120.405497
0.509874  0.000000  0.000000  0.000000  -24.450431  20.741266  24.285714  60.577448  3.995425  6.115200  -1.468307  52.183743  -10.110115  29.872067  120.405497
0.510131  0.000000  0.000000  0.000000  -24.450431  20.741266  28.571429  60.655619  0.260623  4.011325  -1.468307  52.183743  -10.110115  29.872067  120.405497
0.510387  0.000000  0.000000  0.000000  -24.450431  20.741266  32.857143  60.596617  -3.474527  1.908700  -1.468307  52.183743  -10.110115  29.872067  120.405497
0.510644  0.000000  0.000000  0.000000  -24.450431  20.741266  37.142857  60.399262  -7.204973  -0.210646  -1.468307  52.183743  -10.110115  29.872067  120.405497
0.510900  0.000000  0.000000  0.000000  -24.450431  20.741266  41.428571  60.059581  -10.925505  -2.365164  -1.468307  52.183743  -10.110115  29.872067  120.405497
0.511157  0.000000  0.000000  0.000000  -24.450431  20.741266  45.714286  59.570645  -14.630575  -4.574328  -1.468307  52.183743  -10.110115  29.872067  120.405497
0.511413  0.000000  0.000000  0.000000  -24.450431  20.741266  50.000000  58.922354  -18.314124  -6.859224  -1.468307  52.183743  -10.110115  29.872067  120.405497
0.511670  0.000000  0.000000  0.000000  -46.643882  15.638132  -10.000000  55.513508  37.374145  16.114930  -22.195739  45.787590  -10.449875  15.350200  119.546684
0.511926  0.000000  0.000000  0.000000  -46.643882  15.638132  -5.714286  57.213300  33.805095  13.196039  -22.195739  45.787590  -10.449875  15.350200  119.546684
0.512183  0.000000  0.000000  0.000000  -46.643882  15.638132  -1.428571  58.635515  30.172846  10.513078  -22.195739  45.787590  -10.449875  15.350200  119.546684
0.512439  0.000000  0.000000  0.000000  -46.643882  15.638132  2.857143  59.818313  26.489905  8.022318  -22.195739  45.787590  -10.449875  15.350200  119.546684
